<svg xmlns="http://www.w3.org/2000/svg" viewBox="0 0 512 512">
  <defs>
    <linearGradient id="bgGradient" x1="0%" y1="0%" x2="100%" y2="100%">
      <stop offset="0%" style="stop-color:#FF6B35;stop-opacity:1" />
      <stop offset="100%" style="stop-color:#F7931E;stop-opacity:1" />
    </linearGradient>
    
    <linearGradient id="fridgeGradient" x1="0%" y1="0%" x2="0%" y2="100%">
      <stop offset="0%" style="stop-color:#FFFFFF;stop-opacity:1" />
      <stop offset="100%" style="stop-color:#E0E0E0;stop-opacity:1" />
    </linearGradient>
    
    <filter id="shadow">
      <feDropShadow dx="0" dy="4" stdDeviation="8" flood-opacity="0.3"/>
    </filter>
  </defs>
  
  <rect width="512" height="512" rx="110" fill="url(#bgGradient)"/>
  
  <g transform="translate(256, 256)" filter="url(#shadow)">
    <rect x="-100" y="-140" width="200" height="280" rx="20" fill="url(#fridgeGradient)" stroke="#D0D0D0" stroke-width="3"/>
    
    <line x1="-100" y1="-50" x2="100" y2="-50" stroke="#C0C0C0" stroke-width="4"/>
    
    <rect x="75" y="-110" width="12" height="50" rx="6" fill="#FF6B35"/>
    
    <rect x="75" y="10" width="12" height="80" rx="6" fill="#FF6B35"/>
    
    <rect x="-70" y="-110" width="60" height="25" rx="5" fill="#1A1A1A" opacity="0.7"/>
    <text x="-55" y="-92" font-family="Arial, sans-serif" font-size="14" font-weight="bold" fill="#00FF88">CS</text>
    
    <rect x="-70" y="15" width="20" height="35" rx="3" fill="#4A90E2" opacity="0.8"/>
    <ellipse cx="-60" cy="15" rx="10" ry="5" fill="#6AB7FF" opacity="0.8"/>
    
    <rect x="-40" y="20" width="25" height="15" rx="3" fill="#E94B3C" opacity="0.8"/>
    
    <rect x="-40" y="40" width="25" height="15" rx="3" fill="#F7B731" opacity="0.8"/>
    
    <rect x="-10" y="15" width="18" height="40" rx="3" fill="#FF6B6B" opacity="0.8"/>
    <ellipse cx="-1" cy="15" rx="9" ry="4" fill="#FF8787" opacity="0.8"/>
    
    <circle cx="25" cy="30" r="15" fill="#A8E6CF" opacity="0.8"/>
    
    <rect x="-90" y="-130" width="40" height="260" rx="15" fill="white" opacity="0.15"/>
  </g>
  
  <g transform="translate(420, 92)">
    <circle r="40" fill="#1A1A1A" opacity="0.9"/>
    <text x="0" y="8" font-family="Arial, sans-serif" font-size="22" font-weight="bold" fill="#FF6B35" text-anchor="middle">3.0</text>
  </g>
</svg>